<mxfile host="Electron" modified="2023-11-06T09:21:41.566Z" agent="Mozilla/5.0 (Windows NT 10.0; Win64; x64) AppleWebKit/537.36 (KHTML, like Gecko) draw.io/21.6.8 Chrome/114.0.5735.289 Electron/25.5.0 Safari/537.36" etag="TX3DpbZ11QVmyJwiR-A6" version="21.6.8" type="device">
  <diagram name="Page-1" id="gXUgDbwwclrr3rQ-ucHu">
    <mxGraphModel dx="377" dy="588" grid="1" gridSize="10" guides="1" tooltips="1" connect="1" arrows="1" fold="1" page="1" pageScale="1" pageWidth="827" pageHeight="1169" math="0" shadow="0">
      <root>
        <mxCell id="0" />
        <mxCell id="1" parent="0" />
        <mxCell id="eaoquMWUxcSRCSiFeBdz-1" value="&lt;span style=&quot;font-weight: normal;&quot;&gt;&amp;lt;&amp;lt;control&amp;gt;&amp;gt;&lt;br&gt;ReceivePostGameDataControl&lt;br&gt;&lt;/span&gt;" style="swimlane;fontStyle=1;align=center;verticalAlign=top;childLayout=stackLayout;horizontal=1;startSize=40;horizontalStack=0;resizeParent=1;resizeParentMax=0;resizeLast=0;collapsible=1;marginBottom=0;whiteSpace=wrap;html=1;" vertex="1" parent="1">
          <mxGeometry x="230" y="300" width="200" height="174" as="geometry" />
        </mxCell>
        <mxCell id="eaoquMWUxcSRCSiFeBdz-2" value="- ConnectControl&amp;amp;&lt;br&gt;- AnalyzeAndDisplayStatsControl&amp;amp;&lt;br&gt;- PostGameData_t&amp;amp;" style="text;strokeColor=none;fillColor=none;align=left;verticalAlign=top;spacingLeft=4;spacingRight=4;overflow=hidden;rotatable=0;points=[[0,0.5],[1,0.5]];portConstraint=eastwest;whiteSpace=wrap;html=1;" vertex="1" parent="eaoquMWUxcSRCSiFeBdz-1">
          <mxGeometry y="40" width="200" height="54" as="geometry" />
        </mxCell>
        <mxCell id="eaoquMWUxcSRCSiFeBdz-3" value="" style="line;strokeWidth=1;fillColor=none;align=left;verticalAlign=middle;spacingTop=-1;spacingLeft=3;spacingRight=3;rotatable=0;labelPosition=right;points=[];portConstraint=eastwest;strokeColor=inherit;" vertex="1" parent="eaoquMWUxcSRCSiFeBdz-1">
          <mxGeometry y="94" width="200" height="8" as="geometry" />
        </mxCell>
        <mxCell id="eaoquMWUxcSRCSiFeBdz-4" value="+ void _start()&lt;br&gt;+ void receivePostGameData(&lt;br&gt;playerNum, lives_left, hits_from_others)" style="text;strokeColor=none;fillColor=none;align=left;verticalAlign=top;spacingLeft=4;spacingRight=4;overflow=hidden;rotatable=0;points=[[0,0.5],[1,0.5]];portConstraint=eastwest;whiteSpace=wrap;html=1;" vertex="1" parent="eaoquMWUxcSRCSiFeBdz-1">
          <mxGeometry y="102" width="200" height="72" as="geometry" />
        </mxCell>
      </root>
    </mxGraphModel>
  </diagram>
</mxfile>
